<svg width="172" height="46" viewBox="0 0 172 46" fill="none" xmlns="http://www.w3.org/2000/svg">
<path d="M0.18825 45V1.288H17.2763C20.7749 1.288 23.6976 1.736 26.0443 2.632C28.4336 3.528 30.2043 5.02133 31.3563 7.112C32.5509 9.20266 33.1483 12.04 33.1483 15.624C33.1483 18.7813 32.5723 21.448 31.4202 23.624C30.3109 25.7573 28.6043 27.336 26.3003 28.36L33.1483 45H23.8683L18.1083 30.344H9.02025V45H0.18825ZM9.02025 23.112H17.4683C19.0896 23.112 20.3909 22.8133 21.3723 22.216C22.3536 21.576 23.0576 20.7013 23.4843 19.592C23.9109 18.44 24.1243 17.1387 24.1243 15.688C24.1243 13.2987 23.5696 11.5067 22.4603 10.312C21.3509 9.11733 19.6229 8.52 17.2763 8.52H9.02025V23.112ZM39.6258 45V1.288H68.6818V8.648H48.4578V19.272H64.8418V26.504H48.4578V37.64H68.6818V45H39.6258ZM74.8758 45V1.288H86.3958L100.412 32.008H101.564V1.288H110.396V45H99.0038L84.8598 13.768H83.7078V45H74.8758ZM118.438 45V1.288H127.27V45H118.438ZM152.592 45.704C147.941 45.704 144.25 44.8933 141.52 43.272C138.832 41.608 136.89 39.112 135.696 35.784C134.544 32.456 133.968 28.296 133.968 23.304C133.968 18.2693 134.544 14.0667 135.696 10.696C136.89 7.32533 138.832 4.78667 141.52 3.08C144.25 1.37333 147.941 0.519997 152.592 0.519997C157.242 0.519997 160.912 1.37333 163.6 3.08C166.33 4.78667 168.272 7.32533 169.424 10.696C170.618 14.0667 171.216 18.2693 171.216 23.304C171.216 28.3813 170.618 32.584 169.424 35.912C168.272 39.24 166.33 41.7147 163.6 43.336C160.912 44.9147 157.242 45.704 152.592 45.704ZM152.592 38.28C155.28 38.28 157.306 37.7467 158.672 36.68C160.08 35.5707 161.018 33.9067 161.488 31.688C161.957 29.4267 162.192 26.632 162.192 23.304C162.192 19.976 161.936 17.1813 161.424 14.92C160.954 12.616 160.037 10.888 158.672 9.736C157.306 8.54133 155.28 7.944 152.592 7.944C149.946 7.944 147.92 8.54133 146.512 9.736C145.146 10.888 144.208 12.616 143.696 14.92C143.184 17.1813 142.928 19.976 142.928 23.304C142.928 26.5893 143.162 29.3413 143.632 31.56C144.144 33.7787 145.082 35.464 146.448 36.616C147.856 37.7253 149.904 38.28 152.592 38.28Z" fill="#283E6B"/>
</svg>
