<svg width="67" height="45" viewBox="0 0 67 45" fill="none" xmlns="http://www.w3.org/2000/svg">
<path d="M0.2195 44V0.287998H17.3075C20.8062 0.287998 23.7288 0.735998 26.0755 1.632C28.4648 2.528 30.2355 4.02133 31.3875 6.112C32.5822 8.20266 33.1795 11.04 33.1795 14.624C33.1795 17.7813 32.6035 20.448 31.4515 22.624C30.3422 24.7573 28.6355 26.336 26.3315 27.36L33.1795 44H23.8995L18.1395 29.344H9.0515V44H0.2195ZM9.0515 22.112H17.4995C19.1208 22.112 20.4222 21.8133 21.4035 21.216C22.3848 20.576 23.0888 19.7013 23.5155 18.592C23.9422 17.44 24.1555 16.1387 24.1555 14.688C24.1555 12.2987 23.6008 10.5067 22.4915 9.312C21.3822 8.11733 19.6542 7.52 17.3075 7.52H9.0515V22.112ZM51.8245 44.704C48.2832 44.704 45.4672 44.1067 43.3765 42.912C41.3285 41.7173 39.8565 39.904 38.9605 37.472C38.0645 35.04 37.6165 31.9893 37.6165 28.32C37.6165 24.352 38.1712 21.1093 39.2805 18.592C40.4325 16.0747 42.0965 14.2187 44.2725 13.024C46.4485 11.7867 49.1365 11.168 52.3365 11.168C57.0725 11.168 60.6352 12.3627 63.0245 14.752C65.4565 17.1413 66.6725 20.9173 66.6725 26.08L66.2885 30.816H46.1925C46.2352 33.2053 46.7258 34.9973 47.6645 36.192C48.6032 37.3867 50.2245 37.984 52.5285 37.984C53.8512 37.984 55.3018 37.9627 56.8805 37.92C58.4592 37.8347 60.0165 37.7493 61.5525 37.664C63.1312 37.5787 64.4752 37.4933 65.5845 37.408L65.7765 43.36C64.7098 43.5307 63.3658 43.7227 61.7445 43.936C60.1232 44.1493 58.4378 44.32 56.6885 44.448C54.9818 44.6187 53.3605 44.704 51.8245 44.704ZM46.1925 25.376H58.1605C58.1605 22.4747 57.6912 20.448 56.7525 19.296C55.8565 18.144 54.3845 17.568 52.3365 17.568C50.9712 17.568 49.8405 17.824 48.9445 18.336C48.0485 18.848 47.3658 19.68 46.8965 20.832C46.4272 21.984 46.1925 23.4987 46.1925 25.376Z" fill="#283E6B"/>
</svg>
